<svg xmlns="http://www.w3.org/2000/svg" viewBox="0 0 512 512"><defs><linearGradient id="a" x2="0" y2="100%"><stop offset="0" stop-color="#19d7ff"/><stop offset="100%" stop-color="#1e64f0"/></linearGradient></defs><rect width="512" height="512" fill="#fff" rx="128" ry="128"/><circle cx="256" cy="256" r="224" fill="url(#a)"/><path fill="red" d="M409 102l-172 135 40 40z"/><path fill="#fff" d="M102 409l135-172 40 40z"/><line x1="256" x2="256" y1="54" y2="87" stroke="#fff" stroke-width="3"/><line x1="256" x2="256" y1="424" y2="457" stroke="#fff" stroke-width="3"/><line x1="291" x2="285.3" y1="57.1" y2="89.6" stroke="#fff" stroke-width="3"/><line x1="226.7" x2="221" y1="421.4" y2="453.9" stroke="#fff" stroke-width="3"/><line x1="324.9" x2="313.6" y1="66.2" y2="97.2" stroke="#fff" stroke-width="3"/><line x1="198.4" x2="187.1" y1="413.8" y2="444.8" stroke="#fff" stroke-width="3"/><line x1="221" x2="226.7" y1="57.1" y2="89.6" stroke="#fff" stroke-width="3"/><line x1="285.3" x2="291" y1="421.4" y2="453.9" stroke="#fff" stroke-width="3"/><line x1="187.1" x2="198.4" y1="66.2" y2="97.2" stroke="#fff" stroke-width="3"/><line x1="313.6" x2="324.9" y1="413.8" y2="444.8" stroke="#fff" stroke-width="3"/><line x1="155.2" x2="171.8" y1="81" y2="109.6" stroke="#fff" stroke-width="3"/><line x1="340.3" x2="356.8" y1="401.4" y2="430" stroke="#fff" stroke-width="3"/><line x1="126.5" x2="147.7" y1="101.1" y2="126.4" stroke="#fff" stroke-width="3"/><line x1="364.3" x2="385.5" y1="384.6" y2="409.9" stroke="#fff" stroke-width="3"/><line x1="101.6" x2="126.9" y1="126" y2="147.2" stroke="#fff" stroke-width="3"/><line x1="385.1" x2="410.4" y1="363.8" y2="385" stroke="#fff" stroke-width="3"/><line x1="81.5" x2="110.1" y1="154.8" y2="171.3" stroke="#fff" stroke-width="3"/><line x1="401.9" x2="430.5" y1="339.8" y2="356.3" stroke="#fff" stroke-width="3"/><line x1="66.7" x2="97.7" y1="186.6" y2="197.9" stroke="#fff" stroke-width="3"/><line x1="414.3" x2="445.3" y1="313.1" y2="324.4" stroke="#fff" stroke-width="3"/><line x1="57.6" x2="90.1" y1="220.5" y2="226.2" stroke="#fff" stroke-width="3"/><line x1="421.9" x2="454.4" y1="284.8" y2="290.5" stroke="#fff" stroke-width="3"/><line x1="54.5" x2="87.5" y1="255.5" y2="255.5" stroke="#fff" stroke-width="3"/><line x1="424.5" x2="457.5" y1="255.5" y2="255.5" stroke="#fff" stroke-width="3"/><line x1="57.6" x2="90.1" y1="290.5" y2="284.8" stroke="#fff" stroke-width="3"/><line x1="421.9" x2="454.4" y1="226.2" y2="220.5" stroke="#fff" stroke-width="3"/><line x1="66.7" x2="97.7" y1="324.4" y2="313.1" stroke="#fff" stroke-width="3"/><line x1="414.3" x2="445.3" y1="197.9" y2="186.6" stroke="#fff" stroke-width="3"/><line x1="81.5" x2="110.1" y1="356.3" y2="339.8" stroke="#fff" stroke-width="3"/><line x1="401.9" x2="430.5" y1="171.3" y2="154.8" stroke="#fff" stroke-width="3"/><line x1="101.6" x2="126.9" y1="385" y2="363.8" stroke="#fff" stroke-width="3"/><line x1="385.1" x2="410.4" y1="147.2" y2="126" stroke="#fff" stroke-width="3"/><line x1="126.5" x2="147.7" y1="409.9" y2="384.6" stroke="#fff" stroke-width="3"/><line x1="364.3" x2="385.5" y1="126.4" y2="101.1" stroke="#fff" stroke-width="3"/><line x1="155.2" x2="171.8" y1="430" y2="401.4" stroke="#fff" stroke-width="3"/><line x1="340.3" x2="356.8" y1="109.6" y2="81" stroke="#fff" stroke-width="3"/><line x1="238.4" x2="240" y1="54.8" y2="72.7" stroke="#fff" stroke-width="3"/><line x1="272" x2="273.6" y1="438.3" y2="456.2" stroke="#fff" stroke-width="3"/><line x1="203.8" x2="208.5" y1="60.9" y2="78.3" stroke="#fff" stroke-width="3"/><line x1="303.5" x2="308.2" y1="432.7" y2="450.1" stroke="#fff" stroke-width="3"/><line x1="170.8" x2="178.4" y1="72.9" y2="89.2" stroke="#fff" stroke-width="3"/><line x1="333.5" x2="341.2" y1="421.8" y2="438.1" stroke="#fff" stroke-width="3"/><line x1="140.4" x2="150.7" y1="90.4" y2="105.2" stroke="#fff" stroke-width="3"/><line x1="361.3" x2="371.6" y1="405.8" y2="420.6" stroke="#fff" stroke-width="3"/><line x1="113.5" x2="126.2" y1="113" y2="125.7" stroke="#fff" stroke-width="3"/><line x1="385.8" x2="398.5" y1="385.3" y2="398" stroke="#fff" stroke-width="3"/><line x1="90.9" x2="105.7" y1="139.9" y2="150.2" stroke="#fff" stroke-width="3"/><line x1="406.3" x2="421.1" y1="360.8" y2="371.1" stroke="#fff" stroke-width="3"/><line x1="73.4" x2="89.7" y1="170.3" y2="177.9" stroke="#fff" stroke-width="3"/><line x1="422.3" x2="438.6" y1="333" y2="340.7" stroke="#fff" stroke-width="3"/><line x1="61.4" x2="78.8" y1="203.3" y2="208" stroke="#fff" stroke-width="3"/><line x1="433.2" x2="450.6" y1="303" y2="307.7" stroke="#fff" stroke-width="3"/><line x1="55.3" x2="73.2" y1="237.9" y2="239.5" stroke="#fff" stroke-width="3"/><line x1="438.8" x2="456.7" y1="271.5" y2="273.1" stroke="#fff" stroke-width="3"/><line x1="55.3" x2="73.2" y1="273.1" y2="271.5" stroke="#fff" stroke-width="3"/><line x1="438.8" x2="456.7" y1="239.5" y2="237.9" stroke="#fff" stroke-width="3"/><line x1="61.4" x2="78.8" y1="307.7" y2="303" stroke="#fff" stroke-width="3"/><line x1="433.2" x2="450.6" y1="208" y2="203.3" stroke="#fff" stroke-width="3"/><line x1="73.4" x2="89.7" y1="340.7" y2="333.1" stroke="#fff" stroke-width="3"/><line x1="422.3" x2="438.6" y1="177.9" y2="170.3" stroke="#fff" stroke-width="3"/><line x1="90.9" x2="105.7" y1="371.1" y2="360.8" stroke="#fff" stroke-width="3"/><line x1="406.3" x2="421.1" y1="150.2" y2="139.9" stroke="#fff" stroke-width="3"/><line x1="140.4" x2="150.7" y1="420.6" y2="405.8" stroke="#fff" stroke-width="3"/><line x1="361.2" x2="371.6" y1="105.2" y2="90.4" stroke="#fff" stroke-width="3"/><line x1="170.8" x2="178.5" y1="438.1" y2="421.8" stroke="#fff" stroke-width="3"/><line x1="333.5" x2="341.2" y1="89.2" y2="72.9" stroke="#fff" stroke-width="3"/><line x1="203.8" x2="208.5" y1="450.1" y2="432.7" stroke="#fff" stroke-width="3"/><line x1="303.5" x2="308.2" y1="78.3" y2="60.9" stroke="#fff" stroke-width="3"/><line x1="238.4" x2="240" y1="456.2" y2="438.3" stroke="#fff" stroke-width="3"/><line x1="272" x2="273.6" y1="72.7" y2="54.8" stroke="#fff" stroke-width="3"/></svg>
